{"asset":{"version":"2.0","generator":"THREE.GLTFExporter"},"scenes":[{"name":"default","nodes":[0]}],"scene":0,"nodes":[{"matrix":[1,0,0,0,0,1,0,0,0,0,1,0,2,0,3,1],"name":"World","extras":{"data":{"name":"World","points":[{"name":"Origin","pos":{"x":0,"y":0,"z":0}}],"billboard":{"enabled":false,"y":false},"directional":{"enabled":false,"mode":"cameraAngle","angles":[]},"custom":[],"instance":{"name":"World","uuid":"4ABD9E6B-E2B8-4FDE-8C33-E9B095629107","parent":null,"pos":{"x":2,"y":0,"z":3},"rot":{"x":0,"y":0,"z":0,"order":"XYZ"},"sca":{"x":1,"y":1,"z":1},"custom":[]}}},"mesh":0}],"bufferViews":[{"buffer":0,"byteOffset":0,"byteLength":2808,"target":34962,"byteStride":12},{"buffer":0,"byteOffset":2808,"byteLength":2808,"target":34962,"byteStride":12},{"buffer":0,"byteOffset":5616,"byteLength":1872,"target":34962,"byteStride":8},{"buffer":0,"byteOffset":7488,"byteLength":2808,"target":34962,"byteStride":12},{"buffer":0,"byteOffset":10296,"byteLength":648,"target":34963}],"buffers":[{"byteLength":10944,"uri":"data:application/octet-stream;base64,"}],"accessors":[{"bufferView":0,"componentType":5126,"count":234,"max":[1,3,1.0797216454250247e-8],"min":[-2,-2.6177755709649864e-12,-3],"type":"VEC3"},{"bufferView":1,"componentType":5126,"count":234,"max":[1,1,1],"min":[-1,-1,-1],"type":"VEC3"},{"bufferView":2,"componentType":5126,"count":234,"max":[0.0451388880610466,0.0451388880610466],"min":[0.0173611119389534,0.0173611119389534],"type":"VEC2"},{"bufferView":3,"componentType":5126,"count":234,"max":[1,1,1],"min":[1,1,1],"type":"VEC3"},{"bufferView":4,"componentType":5123,"count":324,"max":[233],"min":[0],"type":"SCALAR"}],"materials":[{"pbrMetallicRoughness":{"metallicFactor":0,"roughnessFactor":1,"baseColorTexture":{"index":0}},"alphaMode":"MASK","alphaCutoff":0.01,"doubleSided":true,"name":"texture_1"}],"textures":[{"sampler":0,"source":0,"name":"texture_1"}],"samplers":[{"magFilter":9728,"minFilter":9728,"wrapS":33071,"wrapT":33071}],"images":[{"mimeType":"image/png","uri":"data:image/png;base64,"}],"meshes":[{"primitives":[{"mode":4,"attributes":{"POSITION":0,"NORMAL":1,"TEXCOORD_0":2,"COLOR_0":3},"indices":4,"material":0}]}]}